<svg width="47" height="40" viewBox="0 0 47 40" fill="none" xmlns="http://www.w3.org/2000/svg">
<g clip-path="url(#clip0_138_18)">
<path d="M22.2416 19.936L33.1807 13.08C33.2572 13.0235 33.3643 13.0348 33.4294 13.1025L34.485 14.2088C34.5501 14.2766 34.5539 14.3857 34.4927 14.4572L26.2042 23.9323C25.0261 25.1778 23.7677 25.4224 22.7542 25.0988C22.2493 24.937 21.8094 24.6397 21.4728 24.2521C21.1362 23.8683 20.9029 23.3979 20.8073 22.8937C20.6199 21.889 20.9947 20.7639 22.234 19.9398L22.2416 19.936ZM7.39347 39.9511C6.22689 38.8711 5.17505 37.6745 4.25326 36.3838C3.33911 35.1044 2.55501 33.7272 1.91626 32.2785C1.29281 30.8561 0.810872 29.3584 0.481934 27.8006C0.168294 26.2879 0 24.7225 0 23.1195C0 19.9887 0.634928 17.0047 1.77856 14.2803C2.97192 11.4506 4.71606 8.9031 6.88477 6.77328C9.04964 4.64346 11.6391 2.9238 14.5154 1.75353C17.2846 0.624647 20.3177 0 23.5 0C26.6746 0 29.7001 0.624647 32.4617 1.75353C35.338 2.92756 37.9236 4.65099 40.0923 6.78457C42.2648 8.92192 44.0166 11.4732 45.21 14.2992C46.3612 17.0235 47 20.0038 47 23.1195C47 24.6435 46.847 26.1336 46.5563 27.5786C46.258 29.0611 45.8105 30.4948 45.2329 31.8683C44.6439 33.2643 43.921 34.5964 43.0757 35.8382C42.2227 37.095 41.2474 38.2653 40.1688 39.3377C40.0961 39.4092 39.9737 39.4092 39.901 39.3377L38.7268 38.1863C38.7039 38.1787 38.6809 38.1637 38.6618 38.1449L35.3877 34.9238C35.315 34.8523 35.315 34.7319 35.3877 34.6604L37.1051 32.9708C37.1777 32.8993 37.3001 32.8993 37.3728 32.9708L39.901 35.4581C40.4365 34.7733 40.9299 34.0583 41.3736 33.3133C41.8517 32.5155 42.2725 31.6801 42.6358 30.8184C43.1254 29.6519 43.5117 28.429 43.7718 27.1646C44.0166 25.9906 44.1543 24.7752 44.1811 23.5372H40.6966C40.5933 23.5372 40.5054 23.4544 40.5054 23.349V20.9595C40.5054 20.8579 40.5895 20.7714 40.6966 20.7714H44.0472C43.7871 18.5701 43.1637 16.4704 42.2419 14.5325C41.2895 12.5343 40.0158 10.7131 38.4858 9.12512L36.2445 11.3302C36.1718 11.4017 36.0494 11.4017 35.9767 11.3302L34.2594 9.64064C34.1867 9.56914 34.1867 9.44873 34.2594 9.37723L36.4204 7.25118C34.7222 5.90781 32.8059 4.82032 30.7328 4.05268C28.7248 3.31138 26.5714 2.86736 24.3262 2.78081V5.80245C24.3262 5.90404 24.242 5.99059 24.1349 5.99059H21.7023C21.599 5.99059 21.5111 5.90781 21.5111 5.80245V2.85607C19.2812 3.06303 17.1507 3.62371 15.1847 4.47037C13.1537 5.34713 11.2948 6.53622 9.66927 7.9699L11.9145 10.1787C11.9871 10.2502 11.9871 10.3706 11.9145 10.4421L10.1971 12.1317C10.1244 12.2032 10.002 12.2032 9.92936 12.1317L7.71094 9.9492C6.28426 11.6049 5.11768 13.4901 4.28385 15.5409C3.48063 17.5353 2.97957 19.6764 2.8457 21.9116H6.29956C6.40283 21.9116 6.4908 21.9944 6.4908 22.0997V24.4929C6.4908 24.5945 6.40666 24.6811 6.29956 24.6811H2.86865C2.9528 25.7874 3.12874 26.8636 3.38501 27.9097C3.6604 29.0423 4.03524 30.1373 4.49805 31.191C4.89966 32.1054 5.36629 32.9821 5.8903 33.8175C6.38371 34.604 6.93066 35.3565 7.52734 36.064L10.2965 33.3396C10.3692 33.2681 10.4916 33.2681 10.5643 33.3396L12.2817 35.0292C12.3543 35.1007 12.3543 35.2211 12.2817 35.2926C10.6982 36.8504 9.18734 38.3443 7.65739 39.9436C7.58854 40.0188 7.46997 40.0226 7.39347 39.9511Z" fill="white"/>
</g>
<defs>
<clipPath id="clip0_138_18">
<rect width="47" height="40" fill="white"/>
</clipPath>
</defs>
</svg>
