<svg width="64" height="39" viewBox="0 0 64 39" fill="none" xmlns="http://www.w3.org/2000/svg">
<g clip-path="url(#clip0_137_13)">
<path d="M0.546942 17.6778C2.20487 15.7655 4.00088 13.9653 5.92194 12.2902C9.22625 9.3867 12.9867 6.99096 17.0678 5.18944L14.9844 2.21838L18.573 0L21.1303 3.70391C24.2361 2.75993 27.4692 2.2479 30.7292 2.18372C39.5001 2.01041 48.4844 5.11021 56.9532 11.7505C59.2761 13.581 61.4588 15.5668 63.4844 17.6926C63.7992 18.0296 63.9836 18.4586 64.0073 18.9088C64.031 19.3589 63.8925 19.8033 63.6146 20.1685C61.3614 23.2229 58.6664 25.9601 55.6094 28.2993C51.7499 31.2455 47.3029 33.4184 42.5365 34.687L43.9896 36.7866L40.4272 39L38.0678 35.5783C36.4082 35.8059 34.7341 35.9251 33.0574 35.9349C24.7743 35.9172 16.7052 33.4322 9.98444 28.8291C6.39435 26.4007 3.18371 23.5016 0.447984 20.218C0.142448 19.8532 -0.0155562 19.3965 0.00259719 18.9305C0.0207506 18.4645 0.213861 18.0201 0.546942 17.6778ZM10.0261 14.0679L21.4532 30.1413C23.429 30.8121 25.4653 31.3094 27.5365 31.6268L13.6303 11.4881C12.38 12.2845 11.1768 13.1458 10.0261 14.0679ZM16.5834 28.1012L7.8959 15.8852C6.81257 16.8756 5.75875 17.9204 4.73444 19.0197C6.97938 21.5104 9.53659 23.7304 12.349 25.6303C13.7032 26.541 15.1176 27.368 16.5834 28.1061V28.1012ZM16.0626 10.0669L31.1876 31.9982C31.7969 32.0279 32.4115 32.0378 33.0209 32.0378C33.8594 32.0378 34.6928 31.9933 35.5261 31.9289L19.349 8.50216C18.221 8.96987 17.1189 9.49213 16.0469 10.0669H16.0626ZM23.4949 7.09586L26.0417 10.7849C27.1988 9.98682 28.5142 9.42033 29.9083 9.11976C31.3024 8.81918 32.7462 8.79077 34.1522 9.03625C35.5582 9.28173 36.8971 9.79599 38.0879 10.5479C39.2787 11.2998 40.2966 12.2737 41.0799 13.4105C41.8632 14.5474 42.3957 15.8236 42.645 17.1619C42.8943 18.5001 42.8553 19.8726 42.5303 21.196C42.2054 22.5195 41.6012 23.7666 40.7545 24.8616C39.9077 25.9566 38.836 26.8767 37.6042 27.5664L40.1355 31.2357C44.8479 30.181 49.2524 28.1371 53.0261 25.2539C55.3616 23.4742 57.4604 21.4305 59.2761 19.1682C57.7188 17.6132 56.0666 16.1466 54.3282 14.776C46.6459 8.74479 38.5834 5.9421 30.7865 6.08075C28.3204 6.13473 25.871 6.48071 23.4949 7.11072V7.09586ZM26.6511 11.6713L31.1459 18.1779C31.6297 17.912 32.0513 17.5548 32.3846 17.1283C32.7179 16.7019 32.956 16.2151 33.0842 15.6979C33.2124 15.1808 33.228 14.6442 33.13 14.121C33.0321 13.5979 32.8227 13.0994 32.5147 12.6561C32.2066 12.2127 31.8065 11.834 31.3389 11.5431C30.8712 11.2521 30.346 11.0552 29.7953 10.9644C29.2447 10.8735 28.6803 10.8907 28.137 11.0148C27.5936 11.1389 27.0826 11.3674 26.6355 11.6861L26.6511 11.6713Z" fill="white"/>
</g>
<defs>
<clipPath id="clip0_137_13">
<rect width="64" height="39" fill="white"/>
</clipPath>
</defs>
</svg>
