<svg width="64" height="39" viewBox="0 0 64 39" fill="none" xmlns="http://www.w3.org/2000/svg">
<g clip-path="url(#clip0_137_6)">
<path d="M14.9427 27.8392C14.1042 27.8392 13.4271 27.1612 13.4271 26.3215C13.4271 25.4818 14.1042 24.8039 14.9427 24.8039H41.6979C41.8073 24.8039 41.9167 24.8143 42.0208 24.8404C42.9792 24.9864 43.875 25.2576 44.6771 25.6905C45.5625 26.1703 46.3177 26.8326 46.901 27.7192C48.9062 30.7597 48.6094 33.5812 47.1927 35.6673C46.2708 37.0285 44.8646 38.0403 43.3125 38.5722C41.75 39.1094 40.0208 39.1616 38.4583 38.5879C36.0937 37.7221 34.1771 35.5161 33.8958 31.5212C33.8385 30.6867 34.4687 29.967 35.3021 29.9096C36.1354 29.8523 36.8542 30.4833 36.9115 31.3178C37.0938 33.8941 38.1667 35.2605 39.4844 35.7403C40.375 36.0637 41.3958 36.022 42.3385 35.6986C43.2969 35.37 44.151 34.7651 44.6927 33.9671C45.4687 32.825 45.5833 31.2135 44.375 29.3829C44.0781 28.9344 43.6927 28.5954 43.2396 28.3503C42.7656 28.0947 42.2135 27.9278 41.6094 27.8339H14.9427V27.8392ZM8.02604 14.1907C7.1875 14.1907 6.51042 13.5127 6.51042 12.6731C6.51042 11.8334 7.1875 11.1554 8.02604 11.1554H34.6979C35.3073 11.0615 35.8594 10.8947 36.3333 10.6391C36.7865 10.394 37.1719 10.055 37.4688 9.60648C38.6771 7.77591 38.5573 6.16438 37.7865 5.02223C37.2448 4.22429 36.3906 3.61931 35.4323 3.29075C34.4896 2.9674 33.4635 2.92568 32.5781 3.24903C31.2656 3.72884 30.1875 5.09524 30.0052 7.6716C29.9479 8.50605 29.2292 9.1371 28.3958 9.07973C27.5625 9.02236 26.9323 8.30265 26.9896 7.4682C27.2708 3.47329 29.1875 1.26721 31.5521 0.401475C33.1146 -0.166993 34.8438 -0.11484 36.4062 0.417121C37.9583 0.949081 39.3646 1.96606 40.2865 3.32204C41.7031 5.40816 42 8.22964 39.9948 11.2702C39.4115 12.1568 38.6562 12.8191 37.7708 13.2989C36.9687 13.7318 36.0729 14.003 35.1146 14.149C35.0104 14.1699 34.901 14.1855 34.7917 14.1855H8.02604V14.1907ZM1.51562 21.0175C0.677083 21.0175 0 20.3343 0 19.4999C0 18.6602 0.677083 17.9822 1.51562 17.9822H57.2812C57.8906 17.8884 58.4427 17.7215 58.9115 17.4659C59.3646 17.2208 59.75 16.8818 60.0469 16.4333C61.2552 14.6027 61.1354 12.9912 60.3646 11.8491C59.8229 11.0511 58.9687 10.4461 58.0104 10.1176C57.0677 9.79423 56.0417 9.7525 55.1562 10.0759C53.8438 10.5557 52.7656 11.9221 52.5833 14.4984C52.526 15.3329 51.8073 15.9639 50.974 15.9066C50.1406 15.8492 49.5104 15.1295 49.5677 14.295C49.849 10.3001 51.7656 8.09404 54.1302 7.2283C55.6927 6.65983 57.4219 6.71199 58.9844 7.24395C60.5365 7.77591 61.9427 8.79289 62.8646 10.1489C64.2812 12.235 64.5781 15.0565 62.5729 18.097C61.9896 18.9836 61.2344 19.6459 60.349 20.1257C59.5469 20.5586 58.651 20.8298 57.6927 20.9758C57.5885 20.9967 57.4792 21.0123 57.3698 21.0123H1.51562V21.0175Z" fill="white"/>
</g>
<defs>
<clipPath id="clip0_137_6">
<rect width="64" height="39" fill="white"/>
</clipPath>
</defs>
</svg>
